<svg xmlns="http://www.w3.org/2000/svg" width="96" height="96" viewBox="0 0 72 72"><path fill-rule="evenodd" d="M36 .9A36 36 0 0 0 24.6 71c1.8.4 2.5-.7 2.5-1.7s-.1-3.1-.1-6.1c-10 2.2-12.1-4.8-12.1-4.8-1.6-4.2-4-5.3-4-5.3-3.3-2.2.3-2.2.3-2.2 3.6.3 5.5 3.7 5.5 3.7 3.2 5.5 8.4 3.9 10.4 3a8.3 8.3 0 0 1 2.3-4.8c-8-.9-16.4-4-16.4-17.8a14.2 14.2 0 0 1 3.7-9.7 13.1 13.1 0 0 1 .4-9.5s3-.9 9.9 3.7a34.4 34.4 0 0 1 18 0c6.9-4.6 9.9-3.7 9.9-3.7a13.1 13.1 0 0 1 .4 9.5A14.2 14.2 0 0 1 59 35c0 13.8-8.5 16.9-16.5 17.8 1.3 1.1 2.5 3.3 2.5 6.6 0 4.9-.1 8.7-.1 9.9s.7 2.1 2.5 1.7A36 36 0 0 0 36 .9z"/></svg>