<svg xmlns="http://www.w3.org/2000/svg"><symbol id="hamburger" viewBox="0 0 72 72"><path d="M0 0h72v11.45H0zm0 30.3h72v11.45H0zm0 30.3h72v11.45H0z"/></symbol><symbol id="github" viewBox="0 0 72 72"><path fill-rule="evenodd" d="M36 .9A36 36 0 0 0 24.6 71c1.8.4 2.5-.7 2.5-1.7s-.1-3.1-.1-6.1c-10 2.2-12.1-4.8-12.1-4.8-1.6-4.2-4-5.3-4-5.3-3.3-2.2.3-2.2.3-2.2 3.6.3 5.5 3.7 5.5 3.7 3.2 5.5 8.4 3.9 10.4 3a8.3 8.3 0 0 1 2.3-4.8c-8-.9-16.4-4-16.4-17.8a14.2 14.2 0 0 1 3.7-9.7 13.1 13.1 0 0 1 .4-9.5s3-.9 9.9 3.7a34.4 34.4 0 0 1 18 0c6.9-4.6 9.9-3.7 9.9-3.7a13.1 13.1 0 0 1 .4 9.5A14.2 14.2 0 0 1 59 35c0 13.8-8.5 16.9-16.5 17.8 1.3 1.1 2.5 3.3 2.5 6.6 0 4.9-.1 8.7-.1 9.9s.7 2.1 2.5 1.7A36 36 0 0 0 36 .9z"/></symbol><symbol id="close" viewBox="0 0 72 72"><path d="M8.07.02l63.922 63.922-8.097 8.097L-.027 8.116z"/><path d="M71.98 8.07L8.058 71.991-.04 63.895 63.884-.027z"/></symbol><symbol id="instagram" viewBox="0 0 72 72"><path d="M36 0c-9.8 0-11 0-14.8.2a26.8 26.8 0 0 0-8.8 1.7A17.8 17.8 0 0 0 1.9 12.4a26.8 26.8 0 0 0-1.7 8.8C0 25 0 26.2 0 36s0 11 .2 14.8a26.8 26.8 0 0 0 1.7 8.8 17.8 17.8 0 0 0 10.5 10.5 26.8 26.8 0 0 0 8.8 1.7c3.8.2 5 .2 14.8.2s11 0 14.8-.2a26.8 26.8 0 0 0 8.8-1.7 17.8 17.8 0 0 0 10.5-10.5 26.8 26.8 0 0 0 1.7-8.8c.2-3.8.2-5 .2-14.8s0-11-.2-14.8a26.8 26.8 0 0 0-1.7-8.8A17.8 17.8 0 0 0 59.6 1.9 26.8 26.8 0 0 0 50.8.2C47 0 45.8 0 36 0zm0 6.5c9.6 0 10.8 0 14.5.2a20.3 20.3 0 0 1 6.7 1.2 13.2 13.2 0 0 1 4.2 2.7 13.2 13.2 0 0 1 2.7 4.2 20.3 20.3 0 0 1 1.2 6.7c.2 3.7.2 4.9.2 14.5s0 10.8-.2 14.5a20.3 20.3 0 0 1-1.2 6.7 11.8 11.8 0 0 1-6.9 6.9 20.3 20.3 0 0 1-6.7 1.2c-3.7.2-4.9.2-14.5.2s-10.8 0-14.5-.2a20.3 20.3 0 0 1-6.7-1.2 13.2 13.2 0 0 1-4.2-2.7 13.2 13.2 0 0 1-2.7-4.2 20.3 20.3 0 0 1-1.2-6.7c-.2-3.7-.2-4.9-.2-14.5s0-10.8.2-14.5a20.3 20.3 0 0 1 1.2-6.7 13.2 13.2 0 0 1 2.7-4.2 13.2 13.2 0 0 1 4.2-2.7 20.3 20.3 0 0 1 6.7-1.2c3.7-.2 4.9-.2 14.5-.2"/><path d="M36 48a12 12 0 1 1 12-12 12 12 0 0 1-12 12zm0-30.5A18.5 18.5 0 1 0 54.5 36 18.5 18.5 0 0 0 36 17.5zm23.5-.7a4.3 4.3 0 1 1-4.3-4.3 4.3 4.3 0 0 1 4.3 4.3z"/></symbol></svg>