<svg xmlns="http://www.w3.org/2000/svg" width="96" height="96" viewBox="0 0 72 72"><path d="M36 0c-9.8 0-11 0-14.8.2a26.8 26.8 0 0 0-8.8 1.7A17.8 17.8 0 0 0 1.9 12.4a26.8 26.8 0 0 0-1.7 8.8C0 25 0 26.2 0 36s0 11 .2 14.8a26.8 26.8 0 0 0 1.7 8.8 17.8 17.8 0 0 0 10.5 10.5 26.8 26.8 0 0 0 8.8 1.7c3.8.2 5 .2 14.8.2s11 0 14.8-.2a26.8 26.8 0 0 0 8.8-1.7 17.8 17.8 0 0 0 10.5-10.5 26.8 26.8 0 0 0 1.7-8.8c.2-3.8.2-5 .2-14.8s0-11-.2-14.8a26.8 26.8 0 0 0-1.7-8.8A17.8 17.8 0 0 0 59.6 1.9 26.8 26.8 0 0 0 50.8.2C47 0 45.8 0 36 0zm0 6.5c9.6 0 10.8 0 14.5.2a20.3 20.3 0 0 1 6.7 1.2 13.2 13.2 0 0 1 4.2 2.7 13.2 13.2 0 0 1 2.7 4.2 20.3 20.3 0 0 1 1.2 6.7c.2 3.7.2 4.9.2 14.5s0 10.8-.2 14.5a20.3 20.3 0 0 1-1.2 6.7 11.8 11.8 0 0 1-6.9 6.9 20.3 20.3 0 0 1-6.7 1.2c-3.7.2-4.9.2-14.5.2s-10.8 0-14.5-.2a20.3 20.3 0 0 1-6.7-1.2 13.2 13.2 0 0 1-4.2-2.7 13.2 13.2 0 0 1-2.7-4.2 20.3 20.3 0 0 1-1.2-6.7c-.2-3.7-.2-4.9-.2-14.5s0-10.8.2-14.5a20.3 20.3 0 0 1 1.2-6.7 13.2 13.2 0 0 1 2.7-4.2 13.2 13.2 0 0 1 4.2-2.7 20.3 20.3 0 0 1 6.7-1.2c3.7-.2 4.9-.2 14.5-.2"/><path d="M36 48a12 12 0 1 1 12-12 12 12 0 0 1-12 12zm0-30.5A18.5 18.5 0 1 0 54.5 36 18.5 18.5 0 0 0 36 17.5zm23.5-.7a4.3 4.3 0 1 1-4.3-4.3 4.3 4.3 0 0 1 4.3 4.3z"/></svg>