<svg height="134.4" viewBox="0 0 132 134.4" width="132" xmlns="http://www.w3.org/2000/svg"><path d="m99.4 34.3c-14.5 34.6-14.7 68.6-.5 83.3 0 0 10.8-16.3 33.1-12.7 0 0-22.3 3.4-28.6 26.2l-15.5 2.5c-17.8-35.2-10-66.7 1.4-97.6z" fill="#606772"/><path d="m63.7 72.8s-3.4 7.3-.4 13.8c0 0 14.3-16.6 52-22.5 0 0-29.7-7.5-51.6 8.7z" fill="#606772"/><path d="m0 44.1s34.4-4.2 43.5-40.9l18.4-3.2c11.8 35.5 10.8 94.4-20.8 132.4l-11.6 2s-3-20.7-28.5-27.6c0 0 21.4-3.6 35.3 13.5 16-18.2 20.1-62.8 11.6-95 0 0-11.9 22.7-47.9 18.8z" fill="#33b9a0"/></svg>