<svg id="Layer_1" data-name="Layer 1" xmlns="http://www.w3.org/2000/svg" width="155.8" height="164.9" viewBox="0 0 155.8 164.9"><title>logo</title><path d="M110.1,49.5c-14,34.6-12.9,66.6-.5,83.4a31.7,31.7,0,0,1,31.8-12.8s-20.3,4.8-27.5,26.2L99,148.9c-17.2-35.3-9.7-66.7,1.3-97.6Z" fill="#606772"/><path d="M75.7,88.1s-3.2,7.3-.4,13.8c0,0,13.8-16.6,50.1-22.5C125.4,79.4,96.8,71.8,75.7,88.1Z" fill="#606772"/><path d="M14.4,59.4s32.4-6.5,41.8-41L74,15.3c11.4,35.4,10.3,94.4-20,132.4l-11.2,2a39,39,0,0,0-27.4-27.6s20.5-3.6,34,13.4c15.4-18.2,19.2-62.8,11.1-95C60.5,40.5,49,63.2,14.4,59.4Z" fill="#6bc7b6"/></svg>